<?xml version="1.0" encoding="UTF-8" standalone="no"?>
<!DOCTYPE svg PUBLIC "-//W3C//DTD SVG 1.1//EN"
 "http://www.w3.org/Graphics/SVG/1.1/DTD/svg11.dtd">
<!-- Generated by graphviz version 15.1.0 (20260618.0150)
 -->
<!-- Title: governance_status_lifecycle Pages: 1 -->
<svg width="1145.0pt" height="666.0pt"
 viewBox="14.00 10.00 1091.00 615.00" xmlns="http://www.w3.org/2000/svg" xmlns:xlink="http://www.w3.org/1999/xlink">
<g id="graph0" class="graph" transform="scale(1 1) rotate(0) translate(58 422.3)">
<title>governance_status_lifecycle</title>
<polygon fill="#000c1e" stroke="none" points="-44.0,153.0 -44.0,-411.9 993.2,-411.9 993.2,153.0 -44.0,153.0"/><polygon fill="#000c1e" stroke="none" points="-4.0,113.0 -4.0,-371.9 953.2,-371.9 953.2,113.0 -4.0,113.0"/>
<text xml:space="preserve" text-anchor="start" x="320.1" y="-347.8" font-family="Helvetica,Arial,sans-serif" font-weight="bold" font-size="18.00" fill="#ffffff">GOVERNANCE STATUS LIFECYCLE</text>
<text xml:space="preserve" text-anchor="start" x="365.1" y="-316.55" font-family="Helvetica,Arial,sans-serif" font-size="13.00" fill="#00d4e8">Modernization work item progression</text>
<!-- Blocked -->
<g id="node1" class="node">
<title>Blocked</title>
<path fill="#2a1f0a" stroke="#f5a623" stroke-width="2" d="M384.2,-158.6C384.2,-158.6 317,-158.6 317,-158.6 311,-158.6 305,-152.6 305,-146.6 305,-146.6 305,-128.3 305,-128.3 305,-122.3 311,-116.3 317,-116.3 317,-116.3 384.2,-116.3 384.2,-116.3 390.2,-116.3 396.2,-122.3 396.2,-128.3 396.2,-128.3 396.2,-146.6 396.2,-146.6 396.2,-152.6 390.2,-158.6 384.2,-158.6"/>
<text xml:space="preserve" text-anchor="middle" x="350.6" y="-131.85" font-family="Helvetica,Arial,sans-serif" font-size="13.00" fill="#ffffff">Blocked</text>
</g>
<!-- Merged -->
<g id="node2" class="node">
<title>Merged</title>
<path fill="#00506b" stroke="#00e5ff" stroke-width="3" d="M742.7,-42.3C742.7,-42.3 678.5,-42.3 678.5,-42.3 672.5,-42.3 666.5,-36.3 666.5,-30.3 666.5,-30.3 666.5,-12 666.5,-12 666.5,-6 672.5,0 678.5,0 678.5,0 742.7,0 742.7,0 748.7,0 754.7,-6 754.7,-12 754.7,-12 754.7,-30.3 754.7,-30.3 754.7,-36.3 748.7,-42.3 742.7,-42.3"/>
<text xml:space="preserve" text-anchor="middle" x="710.6" y="-15.55" font-family="Helvetica,Arial,sans-serif" font-size="13.00" fill="#ffffff">Merged</text>
</g>
<!-- Closed -->
<g id="node3" class="node">
<title>Closed</title>
<path fill="#122238" stroke="#4a6584" stroke-width="2" d="M937.2,-42.3C937.2,-42.3 876,-42.3 876,-42.3 870,-42.3 864,-36.3 864,-30.3 864,-30.3 864,-12 864,-12 864,-6 870,0 876,0 876,0 937.2,0 937.2,0 943.2,0 949.2,-6 949.2,-12 949.2,-12 949.2,-30.3 949.2,-30.3 949.2,-36.3 943.2,-42.3 937.2,-42.3"/>
<text xml:space="preserve" text-anchor="middle" x="906.6" y="-15.55" font-family="Helvetica,Arial,sans-serif" font-size="13.00" fill="#b9c7da">Closed</text>
</g>
<!-- Merged&#45;&gt;Closed -->
<g id="edge7" class="edge">
<title>Merged&#45;&gt;Closed</title>
<path fill="none" stroke="#00d4e8" stroke-width="1.5" d="M756.06,-21.15C784.39,-21.15 821.03,-21.15 851.07,-21.15"/>
<polygon fill="#00d4e8" stroke="#00d4e8" stroke-width="1.5" points="850.8,-24.65 860.8,-21.15 850.8,-17.65 850.8,-24.65"/>
<polygon fill="#000c1e" stroke="none" points="772.23,-24.15 772.23,-48.15 846.48,-48.15 846.48,-24.15 772.23,-24.15"/>
<text xml:space="preserve" text-anchor="start" x="778.23" y="-33.15" font-family="Helvetica,Arial,sans-serif" font-size="11.00" fill="#8fe3f0">Issue Closed</text>
</g>
<!-- Backlog -->
<g id="node4" class="node">
<title>Backlog</title>
<path fill="#0a1b33" stroke="#00d4e8" stroke-width="2" d="M79.2,-274.9C79.2,-274.9 12,-274.9 12,-274.9 6,-274.9 0,-268.9 0,-262.9 0,-262.9 0,-244.6 0,-244.6 0,-238.6 6,-232.6 12,-232.6 12,-232.6 79.2,-232.6 79.2,-232.6 85.2,-232.6 91.2,-238.6 91.2,-244.6 91.2,-244.6 91.2,-262.9 91.2,-262.9 91.2,-268.9 85.2,-274.9 79.2,-274.9"/>
<text xml:space="preserve" text-anchor="middle" x="45.6" y="-248.15" font-family="Helvetica,Arial,sans-serif" font-size="13.00" fill="#ffffff">Backlog</text>
</g>
<!-- Ready -->
<g id="node5" class="node">
<title>Ready</title>
<path fill="#0a1b33" stroke="#00d4e8" stroke-width="2" d="M232.7,-274.9C232.7,-274.9 174.5,-274.9 174.5,-274.9 168.5,-274.9 162.5,-268.9 162.5,-262.9 162.5,-262.9 162.5,-244.6 162.5,-244.6 162.5,-238.6 168.5,-232.6 174.5,-232.6 174.5,-232.6 232.7,-232.6 232.7,-232.6 238.7,-232.6 244.7,-238.6 244.7,-244.6 244.7,-244.6 244.7,-262.9 244.7,-262.9 244.7,-268.9 238.7,-274.9 232.7,-274.9"/>
<text xml:space="preserve" text-anchor="middle" x="203.6" y="-248.15" font-family="Helvetica,Arial,sans-serif" font-size="13.00" fill="#ffffff">Ready</text>
</g>
<!-- Backlog&#45;&gt;Ready -->
<g id="edge1" class="edge">
<title>Backlog&#45;&gt;Ready</title>
<path fill="none" stroke="#00d4e8" stroke-width="1.5" d="M92.2,-253.75C111.33,-253.75 130.46,-253.75 149.59,-253.75"/>
<polygon fill="#00d4e8" stroke="#00d4e8" stroke-width="1.5" points="149.55,-257.25 159.55,-253.75 149.55,-250.25 149.55,-257.25"/>
</g>
<!-- In Progress -->
<g id="node6" class="node">
<title>In Progress</title>
<path fill="#0a1b33" stroke="#00d4e8" stroke-width="2" d="M442.7,-274.9C442.7,-274.9 354.5,-274.9 354.5,-274.9 348.5,-274.9 342.5,-268.9 342.5,-262.9 342.5,-262.9 342.5,-244.6 342.5,-244.6 342.5,-238.6 348.5,-232.6 354.5,-232.6 354.5,-232.6 442.7,-232.6 442.7,-232.6 448.7,-232.6 454.7,-238.6 454.7,-244.6 454.7,-244.6 454.7,-262.9 454.7,-262.9 454.7,-268.9 448.7,-274.9 442.7,-274.9"/>
<text xml:space="preserve" text-anchor="middle" x="398.6" y="-248.15" font-family="Helvetica,Arial,sans-serif" font-size="13.00" fill="#ffffff">In Progress</text>
</g>
<!-- Ready&#45;&gt;In Progress -->
<g id="edge2" class="edge">
<title>Ready&#45;&gt;In Progress</title>
<path fill="none" stroke="#00d4e8" stroke-width="1.5" d="M245.43,-253.75C269.9,-253.75 301.4,-253.75 329.47,-253.75"/>
<polygon fill="#00d4e8" stroke="#00d4e8" stroke-width="1.5" points="329.4,-257.25 339.4,-253.75 329.4,-250.25 329.4,-257.25"/>
<polygon fill="#000c1e" stroke="none" points="262.48,-256.75 262.48,-280.75 324.73,-280.75 324.73,-256.75 262.48,-256.75"/>
<text xml:space="preserve" text-anchor="start" x="268.48" y="-265.75" font-family="Helvetica,Arial,sans-serif" font-size="11.00" fill="#8fe3f0">Linked PR</text>
</g>
<!-- In Progress&#45;&gt;Blocked -->
<g id="edge3" class="edge">
<title>In Progress&#45;&gt;Blocked</title>
<path fill="none" stroke="#f5a623" stroke-width="1.5" stroke-dasharray="5,2" d="M385.09,-220.59C378.52,-204.94 370.64,-186.17 364.07,-170.53"/>
<polygon fill="#f5a623" stroke="#f5a623" stroke-width="1.5" points="381.82,-221.83 388.92,-229.69 388.27,-219.12 381.82,-221.83"/>
<polygon fill="#f5a623" stroke="#f5a623" stroke-width="1.5" points="367.33,-169.24 360.23,-161.37 360.87,-171.95 367.33,-169.24"/>
</g>
<!-- Validation -->
<g id="node7" class="node">
<title>Validation</title>
<path fill="#0a1b33" stroke="#00d4e8" stroke-width="2" d="M521.08,-158.6C521.08,-158.6 444.12,-158.6 444.12,-158.6 438.12,-158.6 432.12,-152.6 432.12,-146.6 432.12,-146.6 432.12,-128.3 432.12,-128.3 432.12,-122.3 438.12,-116.3 444.12,-116.3 444.12,-116.3 521.08,-116.3 521.08,-116.3 527.08,-116.3 533.08,-122.3 533.08,-128.3 533.08,-128.3 533.08,-146.6 533.08,-146.6 533.08,-152.6 527.08,-158.6 521.08,-158.6"/>
<text xml:space="preserve" text-anchor="middle" x="482.6" y="-131.85" font-family="Helvetica,Arial,sans-serif" font-size="13.00" fill="#ffffff">Validation</text>
</g>
<!-- In Progress&#45;&gt;Validation -->
<g id="edge4" class="edge">
<title>In Progress&#45;&gt;Validation</title>
<path fill="none" stroke="#00d4e8" stroke-width="1.5" d="M414.01,-231.79C426.91,-214.22 445.51,-188.92 460.09,-169.08"/>
<polygon fill="#00d4e8" stroke="#00d4e8" stroke-width="1.5" points="462.84,-171.24 465.95,-161.11 457.2,-167.1 462.84,-171.24"/>
<polygon fill="#000c1e" stroke="none" points="448.12,-183.6 448.12,-207.6 616.87,-207.6 616.87,-183.6 448.12,-183.6"/>
<text xml:space="preserve" text-anchor="start" x="454.12" y="-192.6" font-family="Helvetica,Arial,sans-serif" font-size="11.00" fill="#8fe3f0">Tests, Docs, Metadata, Evidence</text>
</g>
<!-- Review -->
<g id="node8" class="node">
<title>Review</title>
<path fill="#0a1b33" stroke="#00d4e8" stroke-width="2" d="M742.33,-158.6C742.33,-158.6 678.88,-158.6 678.88,-158.6 672.88,-158.6 666.88,-152.6 666.88,-146.6 666.88,-146.6 666.88,-128.3 666.88,-128.3 666.88,-122.3 672.88,-116.3 678.88,-116.3 678.88,-116.3 742.33,-116.3 742.33,-116.3 748.33,-116.3 754.33,-122.3 754.33,-128.3 754.33,-128.3 754.33,-146.6 754.33,-146.6 754.33,-152.6 748.33,-158.6 742.33,-158.6"/>
<text xml:space="preserve" text-anchor="middle" x="710.6" y="-131.85" font-family="Helvetica,Arial,sans-serif" font-size="13.00" fill="#ffffff">Review</text>
</g>
<!-- Validation&#45;&gt;Review -->
<g id="edge5" class="edge">
<title>Validation&#45;&gt;Review</title>
<path fill="none" stroke="#00d4e8" stroke-width="1.5" d="M534.05,-137.45C569.69,-137.45 617.14,-137.45 653.87,-137.45"/>
<polygon fill="#00d4e8" stroke="#00d4e8" stroke-width="1.5" points="653.61,-140.95 663.61,-137.45 653.61,-133.95 653.61,-140.95"/>
<polygon fill="#000c1e" stroke="none" points="550.85,-140.45 550.85,-164.45 649.1,-164.45 649.1,-140.45 550.85,-140.45"/>
<text xml:space="preserve" text-anchor="start" x="556.85" y="-149.45" font-family="Helvetica,Arial,sans-serif" font-size="11.00" fill="#8fe3f0">Ready for Review</text>
</g>
<!-- Review&#45;&gt;Merged -->
<g id="edge6" class="edge">
<title>Review&#45;&gt;Merged</title>
<path fill="none" stroke="#00d4e8" stroke-width="1.5" d="M710.6,-115.49C710.6,-98.86 710.6,-75.29 710.6,-56"/>
<polygon fill="#00d4e8" stroke="#00d4e8" stroke-width="1.5" points="714.1,-56.03 710.6,-46.03 707.1,-56.03 714.1,-56.03"/>
<polygon fill="#000c1e" stroke="none" points="710.6,-67.3 710.6,-91.3 778.1,-91.3 778.1,-67.3 710.6,-67.3"/>
<text xml:space="preserve" text-anchor="start" x="716.6" y="-76.3" font-family="Helvetica,Arial,sans-serif" font-size="11.00" fill="#8fe3f0">PR Merged</text>
</g>
<g id="gov_caption-inset" transform="translate(202.98 46.00) scale(1 1) rotate(0) translate(4 63)">
<title>caption</title>
<polygon fill="#000c1e" stroke="none" points="-4,4 -4,-63 539.25,-63 539.25,4 -4,4"/>
<!-- Caption -->
<g id="gov_caption-node1" class="node">
<title>Caption</title>
<polygon fill="#ffffff" stroke="none" points="0,0 0,-59 535.25,-59 535.25,0 0,0"/>
<text xml:space="preserve" text-anchor="start" x="13" y="-36.55" font-family="Helvetica,Arial,sans-serif" font-weight="bold" font-size="11.00" fill="#000000">Governance Status Lifecycle.</text>
<text xml:space="preserve" text-anchor="start" x="165.25" y="-36.55" font-family="Helvetica,Arial,sans-serif" font-size="11.00" fill="#000000"> Every work item moves through the same stages, from Backlog to Closed.</text>
<text xml:space="preserve" text-anchor="start" x="13" y="-25.55" font-family="Helvetica,Arial,sans-serif" font-size="11.00" fill="#000000">Each arrow names what has to happen before the item advances. Blocked is a temporary side step: work</text>
<text xml:space="preserve" text-anchor="start" x="13" y="-14.55" font-family="Helvetica,Arial,sans-serif" font-size="11.00" fill="#000000">that hits an obstacle waits there, then returns to In Progress.</text>
<polygon fill="none" stroke="#8a8f98" points="0,0 0,-59 535.25,-59 535.25,0 0,0"/>
</g>
</g>
<g id="gov_legend-inset" transform="translate(60.63 -168.30) scale(1 1) rotate(0) translate(4 150)">
<title>legend</title>
<polygon fill="#000c1e" stroke="none" points="-4,4 -4,-150 135.75,-150 135.75,4 -4,4"/>
<!-- Legend -->
<g id="gov_legend-node1" class="node">
<title>Legend</title>
<polygon fill="#0a1b33" stroke="none" points="0,0 0,-146 131.75,-146 131.75,0 0,0"/>
<text xml:space="preserve" text-anchor="start" x="46.38" y="-129.55" font-family="Helvetica,Arial,sans-serif" font-weight="bold" font-size="11.00" fill="#ffffff">Legend</text>
<polygon fill="#0a1b33" stroke="none" points="4,-105.25 4,-121 32.5,-121 32.5,-105.25 4,-105.25"/>
<polygon fill="none" stroke="#00d4e8" points="4,-105.25 4,-121 32.5,-121 32.5,-105.25 4,-105.25"/>
<text xml:space="preserve" text-anchor="start" x="38.5" y="-110.45" font-family="Helvetica,Arial,sans-serif" font-weight="bold" font-size="9.00" fill="#ffffff">Workflow Status</text>
<polygon fill="#00506b" stroke="none" points="4,-86.5 4,-102.25 32.5,-102.25 32.5,-86.5 4,-86.5"/>
<polygon fill="none" stroke="#00e5ff" points="4,-86.5 4,-102.25 32.5,-102.25 32.5,-86.5 4,-86.5"/>
<text xml:space="preserve" text-anchor="start" x="38.5" y="-91.75" font-family="Helvetica,Arial,sans-serif" font-size="9.00" fill="#b9c7da">Successful Outcome</text>
<polygon fill="#122238" stroke="none" points="4,-67.75 4,-83.5 32.5,-83.5 32.5,-67.75 4,-67.75"/>
<polygon fill="none" stroke="#4a6584" points="4,-67.75 4,-83.5 32.5,-83.5 32.5,-67.75 4,-67.75"/>
<text xml:space="preserve" text-anchor="start" x="38.5" y="-73" font-family="Helvetica,Arial,sans-serif" font-size="9.00" fill="#b9c7da">No Longer Active</text>
<polygon fill="#2a1f0a" stroke="none" points="4,-49 4,-64.75 32.5,-64.75 32.5,-49 4,-49"/>
<polygon fill="none" stroke="#f5a623" points="4,-49 4,-64.75 32.5,-64.75 32.5,-49 4,-49"/>
<text xml:space="preserve" text-anchor="start" x="38.5" y="-54.25" font-family="Helvetica,Arial,sans-serif" font-size="9.00" fill="#f5a623">Temporary Exception</text>
<text xml:space="preserve" text-anchor="start" x="7" y="-32.5" font-family="Helvetica,Arial,sans-serif" font-size="11.00" fill="#00d4e8">—→</text>
<text xml:space="preserve" text-anchor="start" x="38.5" y="-33.62" font-family="Helvetica,Arial,sans-serif" font-size="9.00" fill="#b9c7da">Forward Progression</text>
<text xml:space="preserve" text-anchor="start" x="7.38" y="-10" font-family="Helvetica,Arial,sans-serif" font-size="11.00" fill="#f5a623">&#45; &#45;↔</text>
<text xml:space="preserve" text-anchor="start" x="38.5" y="-11.12" font-family="Helvetica,Arial,sans-serif" font-size="9.00" fill="#b9c7da">Blocked Round Trip</text>
<polygon fill="none" stroke="#4a6584" points="0,0 0,-146 131.75,-146 131.75,0 0,0"/>
</g>
</g>
</g>
</svg>
