<?xml version="1.0" encoding="UTF-8" standalone="no"?>
<!DOCTYPE svg PUBLIC "-//W3C//DTD SVG 1.1//EN"
 "http://www.w3.org/Graphics/SVG/1.1/DTD/svg11.dtd">
<!-- Generated by graphviz version 15.1.0 (20260618.0150)
 -->
<!-- Title: governance_automation_overlay Pages: 1 -->
<svg width="1344.0pt" height="750.0pt"
 viewBox="3.00 -4.00 1301.00 714.00" xmlns="http://www.w3.org/2000/svg" xmlns:xlink="http://www.w3.org/1999/xlink">
<g id="graph0" class="graph" transform="scale(1 1) rotate(0) translate(47.2 515.75)">
<title>governance_automation_overlay</title>
<polygon fill="#000c1e" stroke="none" points="-44.0,158.0 -44.0,-519.75 1213.75,-519.75 1213.75,158.0 -44.0,158.0"/><polygon fill="#000c1e" stroke="none" points="-4.0,118.0 -4.0,-479.75 1173.75,-479.75 1173.75,118.0 -4.0,118.0"/>
<text xml:space="preserve" text-anchor="start" x="413.5" y="-455.65" font-family="Helvetica,Arial,sans-serif" font-weight="bold" font-size="18.00" fill="#ffffff">GOVERNANCE AUTOMATION OVERLAY</text>
<text xml:space="preserve" text-anchor="start" x="332.88" y="-424.4" font-family="Helvetica,Arial,sans-serif" font-size="13.00" fill="#00d4e8">Where automation touches the repository and the ECG Pipeline Modernization board</text>
<g id="clust1" class="cluster">
<title>cluster_github</title>
<path fill="#000c1e" stroke="#4a6584" stroke-width="1.5" d="M20,-227C20,-227 777,-227 777,-227 783,-227 789,-233 789,-239 789,-239 789,-362.75 789,-362.75 789,-368.75 783,-374.75 777,-374.75 777,-374.75 20,-374.75 20,-374.75 14,-374.75 8,-368.75 8,-362.75 8,-362.75 8,-239 8,-239 8,-233 14,-227 20,-227"/>
<text xml:space="preserve" text-anchor="start" x="375.62" y="-358.45" font-family="Helvetica,Arial,sans-serif" font-weight="bold" font-size="14.00" fill="#ffffff">GitHub</text>
</g>
<g id="clust2" class="cluster">
<title>cluster_repo</title>
<path fill="#000c1e" stroke="#4a6584" d="M40,-247C40,-247 449,-247 449,-247 455,-247 461,-253 461,-259 461,-259 461,-319.75 461,-319.75 461,-325.75 455,-331.75 449,-331.75 449,-331.75 40,-331.75 40,-331.75 34,-331.75 28,-325.75 28,-319.75 28,-319.75 28,-259 28,-259 28,-253 34,-247 40,-247"/>
<text xml:space="preserve" text-anchor="start" x="215.62" y="-318" font-family="Helvetica,Arial,sans-serif" font-size="12.00" fill="#8fe3f0">Repository</text>
</g>
<g id="clust3" class="cluster">
<title>cluster_board</title>
<path fill="#000c1e" stroke="#4a6584" d="M493,-247C493,-247 757,-247 757,-247 763,-247 769,-253 769,-259 769,-259 769,-319.75 769,-319.75 769,-325.75 763,-331.75 757,-331.75 757,-331.75 493,-331.75 493,-331.75 487,-331.75 481,-325.75 481,-319.75 481,-319.75 481,-259 481,-259 481,-253 487,-247 493,-247"/>
<text xml:space="preserve" text-anchor="start" x="531.25" y="-318" font-family="Helvetica,Arial,sans-serif" font-size="12.00" fill="#8fe3f0">ECG Pipeline Modernization Board</text>
</g>
<!-- Issues -->
<g id="node1" class="node">
<title>Issues</title>
<path fill="#122238" stroke="#4a6584" stroke-width="2" d="M100.25,-297C100.25,-297 53.75,-297 53.75,-297 47.75,-297 41.75,-291 41.75,-285 41.75,-285 41.75,-273 41.75,-273 41.75,-267 47.75,-261 53.75,-261 53.75,-261 100.25,-261 100.25,-261 106.25,-261 112.25,-267 112.25,-273 112.25,-273 112.25,-285 112.25,-285 112.25,-291 106.25,-297 100.25,-297"/>
<text xml:space="preserve" text-anchor="middle" x="77" y="-273.98" font-family="Helvetica,Arial,sans-serif" font-size="12.00" fill="#b9c7da">Issues</text>
</g>
<!-- PullRequests -->
<g id="node2" class="node">
<title>PullRequests</title>
<path fill="#122238" stroke="#4a6584" stroke-width="2" d="M434.5,-297C434.5,-297 347.5,-297 347.5,-297 341.5,-297 335.5,-291 335.5,-285 335.5,-285 335.5,-273 335.5,-273 335.5,-267 341.5,-261 347.5,-261 347.5,-261 434.5,-261 434.5,-261 440.5,-261 446.5,-267 446.5,-273 446.5,-273 446.5,-285 446.5,-285 446.5,-291 440.5,-297 434.5,-297"/>
<text xml:space="preserve" text-anchor="middle" x="391" y="-273.98" font-family="Helvetica,Arial,sans-serif" font-size="12.00" fill="#b9c7da">Pull Requests</text>
</g>
<!-- LabelsMilestones -->
<g id="node3" class="node">
<title>LabelsMilestones</title>
<path fill="#122238" stroke="#4a6584" stroke-width="2" d="M283.25,-297C283.25,-297 164.75,-297 164.75,-297 158.75,-297 152.75,-291 152.75,-285 152.75,-285 152.75,-273 152.75,-273 152.75,-267 158.75,-261 164.75,-261 164.75,-261 283.25,-261 283.25,-261 289.25,-261 295.25,-267 295.25,-273 295.25,-273 295.25,-285 295.25,-285 295.25,-291 289.25,-297 283.25,-297"/>
<text xml:space="preserve" text-anchor="middle" x="224" y="-273.98" font-family="Helvetica,Arial,sans-serif" font-size="12.00" fill="#b9c7da">Labels + Milestones</text>
</g>
<!-- BoardItems -->
<g id="node4" class="node">
<title>BoardItems</title>
<path fill="#122238" stroke="#4a6584" stroke-width="2" d="M582.88,-297C582.88,-297 507.12,-297 507.12,-297 501.12,-297 495.12,-291 495.12,-285 495.12,-285 495.12,-273 495.12,-273 495.12,-267 501.12,-261 507.12,-261 507.12,-261 582.88,-261 582.88,-261 588.88,-261 594.88,-267 594.88,-273 594.88,-273 594.88,-285 594.88,-285 594.88,-291 588.88,-297 582.88,-297"/>
<text xml:space="preserve" text-anchor="middle" x="545" y="-273.98" font-family="Helvetica,Arial,sans-serif" font-size="12.00" fill="#b9c7da">Board Items</text>
</g>
<!-- PlanningFields -->
<g id="node5" class="node">
<title>PlanningFields</title>
<path fill="#122238" stroke="#4a6584" stroke-width="2" d="M743,-297C743,-297 647,-297 647,-297 641,-297 635,-291 635,-285 635,-285 635,-273 635,-273 635,-267 641,-261 647,-261 647,-261 743,-261 743,-261 749,-261 755,-267 755,-273 755,-273 755,-285 755,-285 755,-291 749,-297 743,-297"/>
<text xml:space="preserve" text-anchor="middle" x="695" y="-273.98" font-family="Helvetica,Arial,sans-serif" font-size="12.00" fill="#b9c7da">Planning Fields</text>
</g>
<!-- IssueCreation -->
<g id="node6" class="node">
<title>IssueCreation</title>
<path fill="#0a1b33" stroke="#00d4e8" stroke-width="2" d="M232.75,-162C232.75,-162 81.25,-162 81.25,-162 75.25,-162 69.25,-156 69.25,-150 69.25,-150 69.25,-138 69.25,-138 69.25,-132 75.25,-126 81.25,-126 81.25,-126 232.75,-126 232.75,-126 238.75,-126 244.75,-132 244.75,-138 244.75,-138 244.75,-150 244.75,-150 244.75,-156 238.75,-162 232.75,-162"/>
<text xml:space="preserve" text-anchor="middle" x="157" y="-138.97" font-family="Helvetica,Arial,sans-serif" font-size="12.00" fill="#ffffff">Idempotent Issue Creation</text>
</g>
<!-- IssueCreation&#45;&gt;Issues -->
<g id="edge1" class="edge">
<title>IssueCreation&#45;&gt;Issues</title>
<path fill="none" stroke="#00d4e8" stroke-width="1.5" d="M68.61,-156.55C46.24,-163.91 24.71,-175.82 11,-195 -3.39,-215.13 15.53,-237.01 36.74,-253.24"/>
<polygon fill="#00d4e8" stroke="#00d4e8" stroke-width="1.5" points="34.53,-255.96 44.7,-258.95 38.61,-250.28 34.53,-255.96"/>
<polygon fill="#000c1e" stroke="none" points="11,-195 11,-219 173,-219 173,-195 11,-195"/>
<text xml:space="preserve" text-anchor="start" x="17" y="-204" font-family="Helvetica,Arial,sans-serif" font-size="11.00" fill="#8fe3f0">Creates Missing, Skips Existing</text>
</g>
<!-- IssueCreation&#45;&gt;LabelsMilestones -->
<g id="edge2" class="edge">
<title>IssueCreation&#45;&gt;LabelsMilestones</title>
<path fill="none" stroke="#00d4e8" stroke-width="1.5" d="M166.04,-162.94C177.24,-185.17 196.46,-223.33 209.68,-249.57"/>
<polygon fill="#00d4e8" stroke="#00d4e8" stroke-width="1.5" points="206.46,-250.96 214.09,-258.32 212.71,-247.81 206.46,-250.96"/>
<polygon fill="#000c1e" stroke="none" points="192.51,-195 192.51,-219 281.76,-219 281.76,-195 192.51,-195"/>
<text xml:space="preserve" text-anchor="start" x="198.51" y="-204" font-family="Helvetica,Arial,sans-serif" font-size="11.00" fill="#8fe3f0">Creates Missing</text>
</g>
<!-- FieldUpdate -->
<g id="node7" class="node">
<title>FieldUpdate</title>
<path fill="#0a1b33" stroke="#00d4e8" stroke-width="2" d="M1157.75,-162C1157.75,-162 1018.25,-162 1018.25,-162 1012.25,-162 1006.25,-156 1006.25,-150 1006.25,-150 1006.25,-138 1006.25,-138 1006.25,-132 1012.25,-126 1018.25,-126 1018.25,-126 1157.75,-126 1157.75,-126 1163.75,-126 1169.75,-132 1169.75,-138 1169.75,-138 1169.75,-150 1169.75,-150 1169.75,-156 1163.75,-162 1157.75,-162"/>
<text xml:space="preserve" text-anchor="middle" x="1088" y="-138.97" font-family="Helvetica,Arial,sans-serif" font-size="12.00" fill="#ffffff">Project V2 Field Update</text>
</g>
<!-- FieldUpdate&#45;&gt;PlanningFields -->
<g id="edge3" class="edge">
<title>FieldUpdate&#45;&gt;PlanningFields</title>
<path fill="none" stroke="#00d4e8" stroke-width="1.5" d="M1069.55,-162.83C1050.8,-179.91 1020.15,-205.09 989,-219 917.7,-250.84 829.02,-265.62 767.8,-272.41"/>
<polygon fill="#00d4e8" stroke="#00d4e8" stroke-width="1.5" points="767.77,-268.89 758.19,-273.42 768.51,-275.85 767.77,-268.89"/>
<polygon fill="#000c1e" stroke="none" points="1029.78,-195 1029.78,-219 1167.78,-219 1167.78,-195 1029.78,-195"/>
<text xml:space="preserve" text-anchor="start" x="1035.78" y="-204" font-family="Helvetica,Arial,sans-serif" font-size="11.00" fill="#8fe3f0">Preserves Curated Values</text>
</g>
<!-- MetadataGate -->
<g id="node8" class="node">
<title>MetadataGate</title>
<path fill="#0a1b33" stroke="#00d4e8" stroke-width="2" d="M750.12,-162C750.12,-162 639.88,-162 639.88,-162 633.88,-162 627.88,-156 627.88,-150 627.88,-150 627.88,-138 627.88,-138 627.88,-132 633.88,-126 639.88,-126 639.88,-126 750.12,-126 750.12,-126 756.12,-126 762.12,-132 762.12,-138 762.12,-138 762.12,-150 762.12,-150 762.12,-156 756.12,-162 750.12,-162"/>
<text xml:space="preserve" text-anchor="middle" x="695" y="-138.97" font-family="Helvetica,Arial,sans-serif" font-size="12.00" fill="#ffffff">PR Metadata Gate</text>
</g>
<!-- MetadataGate&#45;&gt;PullRequests -->
<g id="edge4" class="edge">
<title>MetadataGate&#45;&gt;PullRequests</title>
<path fill="none" stroke="#00d4e8" stroke-width="1.5" d="M632.22,-162.92C586.2,-177.25 522.96,-199.47 471,-227 456.04,-234.93 440.19,-244.71 426.59,-253.58"/>
<polygon fill="#00d4e8" stroke="#00d4e8" stroke-width="1.5" points="424.97,-250.45 418.56,-258.89 428.83,-256.29 424.97,-250.45"/>
<polygon fill="#000c1e" stroke="none" points="536.37,-195 536.37,-219 672.12,-219 672.12,-195 536.37,-195"/>
<text xml:space="preserve" text-anchor="start" x="542.37" y="-204" font-family="Helvetica,Arial,sans-serif" font-size="11.00" fill="#8fe3f0">Validates Every PR Event</text>
</g>
<!-- MetadataGate&#45;&gt;PlanningFields -->
<g id="edge5" class="edge">
<title>MetadataGate&#45;&gt;PlanningFields</title>
<path fill="none" stroke="#00d4e8" stroke-width="1.5" d="M693.47,-162.57C692.71,-172.15 691.88,-184.22 691.5,-195 690.89,-212.57 691.65,-232.22 692.62,-247.99"/>
<polygon fill="#00d4e8" stroke="#00d4e8" stroke-width="1.5" points="689.12,-248.19 693.3,-257.93 696.11,-247.71 689.12,-248.19"/>
<polygon fill="#000c1e" stroke="none" points="691.5,-195 691.5,-219 834,-219 834,-195 691.5,-195"/>
<text xml:space="preserve" text-anchor="start" x="697.5" y="-204" font-family="Helvetica,Arial,sans-serif" font-size="11.00" fill="#8fe3f0">Checks Linked Issue Fields</text>
</g>
<!-- StatusSync -->
<g id="node9" class="node">
<title>StatusSync</title>
<path fill="#0a1b33" stroke="#00d4e8" stroke-width="2" d="M954.12,-162C954.12,-162 813.88,-162 813.88,-162 807.88,-162 801.88,-156 801.88,-150 801.88,-150 801.88,-138 801.88,-138 801.88,-132 807.88,-126 813.88,-126 813.88,-126 954.12,-126 954.12,-126 960.12,-126 966.12,-132 966.12,-138 966.12,-138 966.12,-150 966.12,-150 966.12,-156 960.12,-162 954.12,-162"/>
<text xml:space="preserve" text-anchor="middle" x="884" y="-138.97" font-family="Helvetica,Arial,sans-serif" font-size="12.00" fill="#ffffff">Post&#45;Merge Status Sync</text>
</g>
<!-- StatusSync&#45;&gt;PlanningFields -->
<g id="edge6" class="edge">
<title>StatusSync&#45;&gt;PlanningFields</title>
<path fill="none" stroke="#00d4e8" stroke-width="1.5" d="M877.33,-162.78C870.31,-179.33 857.79,-203.7 840,-219 819.18,-236.91 792.22,-249.87 767.19,-259"/>
<polygon fill="#00d4e8" stroke="#00d4e8" stroke-width="1.5" points="766.31,-255.6 758.01,-262.18 768.6,-262.21 766.31,-255.6"/>
<polygon fill="#000c1e" stroke="none" points="859.77,-195 859.77,-219 979.02,-219 979.02,-195 859.77,-195"/>
<text xml:space="preserve" text-anchor="start" x="865.77" y="-204" font-family="Helvetica,Arial,sans-serif" font-size="11.00" fill="#8fe3f0">Sets Status to Merged</text>
</g>
<!-- Maintainer -->
<g id="node10" class="node">
<title>Maintainer</title>
<path fill="#122238" stroke="#b9c7da" stroke-width="2" stroke-dasharray="5,2" d="M359.12,-36C359.12,-36 290.88,-36 290.88,-36 284.88,-36 278.88,-30 278.88,-24 278.88,-24 278.88,-12 278.88,-12 278.88,-6 284.88,0 290.88,0 290.88,0 359.12,0 359.12,0 365.12,0 371.12,-6 371.12,-12 371.12,-12 371.12,-24 371.12,-24 371.12,-30 365.12,-36 359.12,-36"/>
<text xml:space="preserve" text-anchor="middle" x="325" y="-12.97" font-family="Helvetica,Arial,sans-serif" font-size="12.00" fill="#ffffff">Maintainer</text>
</g>
<!-- Maintainer&#45;&gt;PullRequests -->
<g id="edge9" class="edge">
<title>Maintainer&#45;&gt;PullRequests</title>
<path fill="none" stroke="#b9c7da" stroke-width="1.5" stroke-dasharray="5,2" d="M329.54,-36.8C340.7,-80.61 369.59,-193.99 383.41,-248.23"/>
<polygon fill="#b9c7da" stroke="#b9c7da" stroke-width="1.5" points="380.01,-249.05 385.87,-257.87 386.79,-247.32 380.01,-249.05"/>
<polygon fill="#000c1e" stroke="none" points="361.3,-132 361.3,-156 414.55,-156 414.55,-132 361.3,-132"/>
<text xml:space="preserve" text-anchor="start" x="367.3" y="-141" font-family="Helvetica,Arial,sans-serif" font-size="11.00" fill="#b9c7da">Reviews</text>
</g>
<!-- Maintainer&#45;&gt;BoardItems -->
<g id="edge8" class="edge">
<title>Maintainer&#45;&gt;BoardItems</title>
<path fill="none" stroke="#b9c7da" stroke-width="1.5" stroke-dasharray="5,2" d="M356.46,-36.93C402.01,-64.64 485.49,-122.33 528,-195 537.47,-211.19 541.72,-231.84 543.61,-248.49"/>
<polygon fill="#b9c7da" stroke="#b9c7da" stroke-width="1.5" points="540.08,-248.39 544.44,-258.05 547.06,-247.78 540.08,-248.39"/>
<polygon fill="#000c1e" stroke="none" points="505.16,-132 505.16,-156 601.91,-156 601.91,-132 505.16,-132"/>
<text xml:space="preserve" text-anchor="start" x="511.16" y="-141" font-family="Helvetica,Arial,sans-serif" font-size="11.00" fill="#b9c7da">Configures Views</text>
</g>
<!-- Maintainer&#45;&gt;IssueCreation -->
<g id="edge7" class="edge">
<title>Maintainer&#45;&gt;IssueCreation</title>
<path fill="none" stroke="#b9c7da" stroke-width="1.5" stroke-dasharray="5,2" d="M277.94,-21.14C242.32,-25.4 195.07,-37.19 168,-69 157.84,-80.94 154.82,-98.06 154.46,-112.83"/>
<polygon fill="#b9c7da" stroke="#b9c7da" stroke-width="1.5" points="150.96,-112.82 154.67,-122.74 157.95,-112.67 150.96,-112.82"/>
<polygon fill="#000c1e" stroke="none" points="168,-69 168,-93 294,-93 294,-69 168,-69"/>
<text xml:space="preserve" text-anchor="start" x="174" y="-78" font-family="Helvetica,Arial,sans-serif" font-size="11.00" fill="#b9c7da">Reviews Intake Catalog</text>
</g>
<g id="governance-automation-overlay-caption-inset" transform="translate(314.38 40.00) scale(1 1) rotate(0) translate(4 74)">
<title>caption</title>
<polygon fill="#000c1e" stroke="none" points="-4,4 -4,-74 537,-74 537,4 -4,4"/>
<!-- Caption -->
<g id="governance-automation-overlay-caption-node1" class="node">
<title>Caption</title>
<polygon fill="#ffffff" stroke="none" points="0,0 0,-70 533,-70 533,0 0,0"/>
<text xml:space="preserve" text-anchor="start" x="13" y="-47.55" font-family="Helvetica,Arial,sans-serif" font-weight="bold" font-size="11.00" fill="#000000">Governance Automation Overlay.</text>
<text xml:space="preserve" text-anchor="start" x="185.5" y="-47.55" font-family="Helvetica,Arial,sans-serif" font-size="11.00" fill="#000000"> Scripts create issues and fill in project&#45;board fields without overwriting</text>
<text xml:space="preserve" text-anchor="start" x="13" y="-36.55" font-family="Helvetica,Arial,sans-serif" font-size="11.00" fill="#000000">anything a person curated, a gate checks every pull request for complete metadata, and a post&#45;merge job</text>
<text xml:space="preserve" text-anchor="start" x="13" y="-25.55" font-family="Helvetica,Arial,sans-serif" font-size="11.00" fill="#000000">marks finished work. The maintainer stays in the loop: reviewing the intake catalog, configuring board</text>
<text xml:space="preserve" text-anchor="start" x="13" y="-14.55" font-family="Helvetica,Arial,sans-serif" font-size="11.00" fill="#000000">views, and reviewing pull requests.</text>
<polygon fill="none" stroke="#8a8f98" points="0,0 0,-70 533,-70 533,0 0,0"/>
</g>
</g>
<g id="governance-automation-overlay-legend-inset" transform="translate(1015.00 -81.00) scale(1 1) rotate(0) translate(4 150)">
<title>legend</title>
<polygon fill="#000c1e" stroke="none" points="-4,4 -4,-150 150.75,-150 150.75,4 -4,4"/>
<!-- Legend -->
<g id="governance-automation-overlay-legend-node1" class="node">
<title>Legend</title>
<polygon fill="#0a1b33" stroke="none" points="0,0 0,-146 146.75,-146 146.75,0 0,0"/>
<text xml:space="preserve" text-anchor="start" x="53.88" y="-129.55" font-family="Helvetica,Arial,sans-serif" font-weight="bold" font-size="11.00" fill="#ffffff">Legend</text>
<polygon fill="#0a1b33" stroke="none" points="4,-105.25 4,-121 32.5,-121 32.5,-105.25 4,-105.25"/>
<polygon fill="none" stroke="#00d4e8" points="4,-105.25 4,-121 32.5,-121 32.5,-105.25 4,-105.25"/>
<text xml:space="preserve" text-anchor="start" x="38.5" y="-110.45" font-family="Helvetica,Arial,sans-serif" font-weight="bold" font-size="9.00" fill="#ffffff">Automation Component</text>
<polygon fill="#122238" stroke="none" points="4,-86.5 4,-102.25 32.5,-102.25 32.5,-86.5 4,-86.5"/>
<polygon fill="none" stroke="#4a6584" points="4,-86.5 4,-102.25 32.5,-102.25 32.5,-86.5 4,-86.5"/>
<text xml:space="preserve" text-anchor="start" x="38.5" y="-91.75" font-family="Helvetica,Arial,sans-serif" font-size="9.00" fill="#b9c7da">GitHub Entity</text>
<polygon fill="#122238" stroke="none" points="4,-67.75 4,-83.5 32.5,-83.5 32.5,-67.75 4,-67.75"/>
<polygon fill="none" stroke="#b9c7da" points="4,-67.75 4,-83.5 32.5,-83.5 32.5,-67.75 4,-67.75"/>
<text xml:space="preserve" text-anchor="start" x="38.5" y="-73" font-family="Helvetica,Arial,sans-serif" font-size="9.00" fill="#b9c7da">Maintainer Judgment</text>
<polygon fill="#000c1e" stroke="none" points="4,-49 4,-64.75 32.5,-64.75 32.5,-49 4,-49"/>
<polygon fill="none" stroke="#4a6584" points="4,-49 4,-64.75 32.5,-64.75 32.5,-49 4,-49"/>
<text xml:space="preserve" text-anchor="start" x="38.5" y="-54.25" font-family="Helvetica,Arial,sans-serif" font-size="9.00" fill="#b9c7da">GitHub Grouping</text>
<text xml:space="preserve" text-anchor="start" x="7" y="-32.5" font-family="Helvetica,Arial,sans-serif" font-size="11.00" fill="#00d4e8">—→</text>
<text xml:space="preserve" text-anchor="start" x="38.5" y="-33.62" font-family="Helvetica,Arial,sans-serif" font-size="9.00" fill="#b9c7da">Automated Action</text>
<text xml:space="preserve" text-anchor="start" x="7.38" y="-10" font-family="Helvetica,Arial,sans-serif" font-size="11.00" fill="#b9c7da">&#45; &#45;→</text>
<text xml:space="preserve" text-anchor="start" x="38.5" y="-11.12" font-family="Helvetica,Arial,sans-serif" font-size="9.00" fill="#b9c7da">Manual Step</text>
<polygon fill="none" stroke="#4a6584" points="0,0 0,-146 146.75,-146 146.75,0 0,0"/>
</g>
</g>
</g>
</svg>
