<?xml version="1.0" encoding="UTF-8" standalone="no"?>
<!DOCTYPE svg PUBLIC "-//W3C//DTD SVG 1.1//EN"
 "http://www.w3.org/Graphics/SVG/1.1/DTD/svg11.dtd">
<!-- Generated by graphviz version 15.1.0 (20260618.0150)
 -->
<!-- Title: local_flow_artifact_zones Pages: 1 -->
<svg width="731.0pt" height="969.0pt"
 viewBox="3.00 -4.00 688.00 933.00" xmlns="http://www.w3.org/2000/svg" xmlns:xlink="http://www.w3.org/1999/xlink">
<g id="graph0" class="graph" transform="scale(1 1) rotate(0) translate(47.2 849.5)">
<title>local_flow_artifact_zones</title>
<polygon fill="#000c1e" stroke="none" points="-44.0,44.0 -44.0,-853.5 600.88,-853.5 600.88,44.0 -44.0,44.0"/><polygon fill="#000c1e" stroke="none" points="-4,4 -4,-813.5 560.88,-813.5 560.88,4 -4,4"/>
<text xml:space="preserve" text-anchor="start" x="116.44" y="-789.4" font-family="Helvetica,Arial,sans-serif" font-weight="bold" font-size="18.00" fill="#ffffff">LOCAL FLOW AND ARTIFACT ZONES</text>
<text xml:space="preserve" text-anchor="start" x="143.81" y="-758.15" font-family="Helvetica,Arial,sans-serif" font-size="13.00" fill="#00d4e8">Each stage writes into a gitignored data zone</text>
<!-- Source -->
<g id="node1" class="node">
<title>Source</title>
<path fill="#122238" stroke="#4a6584" stroke-width="2" d="M175.88,-716.5C175.88,-716.5 26.62,-716.5 26.62,-716.5 20.63,-716.5 14.62,-710.5 14.62,-704.5 14.62,-704.5 14.62,-692.5 14.62,-692.5 14.62,-686.5 20.62,-680.5 26.62,-680.5 26.62,-680.5 175.88,-680.5 175.88,-680.5 181.88,-680.5 187.88,-686.5 187.88,-692.5 187.88,-692.5 187.88,-704.5 187.88,-704.5 187.88,-710.5 181.88,-716.5 175.88,-716.5"/>
<text xml:space="preserve" text-anchor="middle" x="101.25" y="-693.47" font-family="Helvetica,Arial,sans-serif" font-size="12.00" fill="#b9c7da">PhysioNet MIT&#45;BIH v1.0.0</text>
</g>
<!-- AcquireVerify -->
<g id="node2" class="node">
<title>AcquireVerify</title>
<path fill="#0a1b33" stroke="#00d4e8" stroke-width="2" d="M181.88,-624.95C181.88,-624.95 20.62,-624.95 20.62,-624.95 14.62,-624.95 8.62,-618.95 8.62,-612.95 8.62,-612.95 8.62,-600.95 8.62,-600.95 8.62,-594.95 14.62,-588.95 20.62,-588.95 20.62,-588.95 181.88,-588.95 181.88,-588.95 187.88,-588.95 193.88,-594.95 193.88,-600.95 193.88,-600.95 193.88,-612.95 193.88,-612.95 193.88,-618.95 187.88,-624.95 181.88,-624.95"/>
<text xml:space="preserve" text-anchor="middle" x="101.25" y="-601.92" font-family="Helvetica,Arial,sans-serif" font-size="12.00" fill="#ffffff">Acquire + Verify Checksums</text>
</g>
<!-- Source&#45;&gt;AcquireVerify -->
<g id="edge1" class="edge">
<title>Source&#45;&gt;AcquireVerify</title>
<path fill="none" stroke="#00d4e8" stroke-width="1.5" d="M101.25,-679.81C101.25,-667.87 101.25,-651.81 101.25,-637.9"/>
<polygon fill="#00d4e8" stroke="#00d4e8" stroke-width="1.5" points="104.75,-638.18 101.25,-628.18 97.75,-638.18 104.75,-638.18"/>
</g>
<!-- DataRaw -->
<g id="node3" class="node">
<title>DataRaw</title>
<path fill="#0a1b33" stroke="#4a6584" stroke-width="2" stroke-dasharray="5,2" d="M377,-630.5C377,-630.5 255.5,-630.5 255.5,-630.5 249.5,-630.5 243.5,-624.5 243.5,-618.5 243.5,-618.5 243.5,-595.4 243.5,-595.4 243.5,-589.4 249.5,-583.4 255.5,-583.4 255.5,-583.4 377,-583.4 377,-583.4 383,-583.4 389,-589.4 389,-595.4 389,-595.4 389,-618.5 389,-618.5 389,-624.5 383,-630.5 377,-630.5"/>
<text xml:space="preserve" text-anchor="middle" x="316.25" y="-608.3" font-family="Helvetica,Arial,sans-serif" font-size="12.00" fill="#b9c7da">data/raw/</text>
<text xml:space="preserve" text-anchor="middle" x="316.25" y="-595.55" font-family="Helvetica,Arial,sans-serif" font-size="12.00" fill="#b9c7da">(Immutable, Ignored)</text>
</g>
<!-- AcquireVerify&#45;&gt;DataRaw -->
<g id="edge2" class="edge">
<title>AcquireVerify&#45;&gt;DataRaw</title>
<path fill="none" stroke="#4a6584" stroke-width="1.5" stroke-dasharray="5,2" d="M194.47,-606.95C206.61,-606.95 218.75,-606.95 230.88,-606.95"/>
<polygon fill="#4a6584" stroke="#4a6584" stroke-width="1.5" points="240.69,-606.95 230.69,-611.45 237.52,-607.2 230.69,-607.2 230.69,-606.95 230.69,-606.7 237.52,-606.7 230.69,-602.45 240.69,-606.95"/>
</g>
<!-- Validate -->
<g id="node4" class="node">
<title>Validate</title>
<path fill="#0a1b33" stroke="#00d4e8" stroke-width="2" d="M190.5,-533.4C190.5,-533.4 12,-533.4 12,-533.4 6,-533.4 0,-527.4 0,-521.4 0,-521.4 0,-509.4 0,-509.4 0,-503.4 6,-497.4 12,-497.4 12,-497.4 190.5,-497.4 190.5,-497.4 196.5,-497.4 202.5,-503.4 202.5,-509.4 202.5,-509.4 202.5,-521.4 202.5,-521.4 202.5,-527.4 196.5,-533.4 190.5,-533.4"/>
<text xml:space="preserve" text-anchor="middle" x="101.25" y="-510.38" font-family="Helvetica,Arial,sans-serif" font-size="12.00" fill="#ffffff">Validate Records + Annotations</text>
</g>
<!-- AcquireVerify&#45;&gt;Validate -->
<g id="edge3" class="edge">
<title>AcquireVerify&#45;&gt;Validate</title>
<path fill="none" stroke="#00d4e8" stroke-width="1.5" d="M101.25,-588.26C101.25,-576.32 101.25,-560.26 101.25,-546.35"/>
<polygon fill="#00d4e8" stroke="#00d4e8" stroke-width="1.5" points="104.75,-546.63 101.25,-536.63 97.75,-546.63 104.75,-546.63"/>
</g>
<!-- ValidationReport -->
<g id="node5" class="node">
<title>ValidationReport</title>
<path fill="#0a1b33" stroke="#8fe3f0" stroke-width="2" stroke-dasharray="5,2" d="M368,-533.4C368,-533.4 264.5,-533.4 264.5,-533.4 258.5,-533.4 252.5,-527.4 252.5,-521.4 252.5,-521.4 252.5,-509.4 252.5,-509.4 252.5,-503.4 258.5,-497.4 264.5,-497.4 264.5,-497.4 368,-497.4 368,-497.4 374,-497.4 380,-503.4 380,-509.4 380,-509.4 380,-521.4 380,-521.4 380,-527.4 374,-533.4 368,-533.4"/>
<text xml:space="preserve" text-anchor="middle" x="316.25" y="-510.38" font-family="Helvetica,Arial,sans-serif" font-size="12.00" fill="#8fe3f0">Validation Report</text>
</g>
<!-- Validate&#45;&gt;ValidationReport -->
<g id="edge4" class="edge">
<title>Validate&#45;&gt;ValidationReport</title>
<path fill="none" stroke="#4a6584" stroke-width="1.5" stroke-dasharray="5,2" d="M203.29,-515.4C215.55,-515.4 227.81,-515.4 240.07,-515.4"/>
<polygon fill="#4a6584" stroke="#4a6584" stroke-width="1.5" points="250,-515.4 240,-519.9 246.83,-515.65 240,-515.65 240,-515.4 240,-515.15 246.83,-515.15 240,-510.9 250,-515.4"/>
</g>
<!-- CreateWindows -->
<g id="node6" class="node">
<title>CreateWindows</title>
<path fill="#0a1b33" stroke="#00d4e8" stroke-width="2" d="M188.62,-441.85C188.62,-441.85 13.87,-441.85 13.87,-441.85 7.87,-441.85 1.88,-435.85 1.88,-429.85 1.88,-429.85 1.88,-417.85 1.88,-417.85 1.88,-411.85 7.88,-405.85 13.88,-405.85 13.88,-405.85 188.62,-405.85 188.62,-405.85 194.62,-405.85 200.62,-411.85 200.62,-417.85 200.62,-417.85 200.62,-429.85 200.62,-429.85 200.62,-435.85 194.62,-441.85 188.62,-441.85"/>
<text xml:space="preserve" text-anchor="middle" x="101.25" y="-418.83" font-family="Helvetica,Arial,sans-serif" font-size="12.00" fill="#ffffff">Create Labeled Beat Windows</text>
</g>
<!-- Validate&#45;&gt;CreateWindows -->
<g id="edge5" class="edge">
<title>Validate&#45;&gt;CreateWindows</title>
<path fill="none" stroke="#00d4e8" stroke-width="1.5" d="M101.25,-496.71C101.25,-484.77 101.25,-468.71 101.25,-454.8"/>
<polygon fill="#00d4e8" stroke="#00d4e8" stroke-width="1.5" points="104.75,-455.08 101.25,-445.08 97.75,-455.08 104.75,-455.08"/>
</g>
<!-- DataInterim -->
<g id="node7" class="node">
<title>DataInterim</title>
<path fill="#0a1b33" stroke="#4a6584" stroke-width="2" stroke-dasharray="5,2" d="M393.88,-447.4C393.88,-447.4 262.62,-447.4 262.62,-447.4 256.62,-447.4 250.62,-441.4 250.62,-435.4 250.62,-435.4 250.62,-412.3 250.62,-412.3 250.62,-406.3 256.62,-400.3 262.62,-400.3 262.62,-400.3 393.88,-400.3 393.88,-400.3 399.88,-400.3 405.88,-406.3 405.88,-412.3 405.88,-412.3 405.88,-435.4 405.88,-435.4 405.88,-441.4 399.88,-447.4 393.88,-447.4"/>
<text xml:space="preserve" text-anchor="middle" x="328.25" y="-425.2" font-family="Helvetica,Arial,sans-serif" font-size="12.00" fill="#b9c7da">data/interim/</text>
<text xml:space="preserve" text-anchor="middle" x="328.25" y="-412.45" font-family="Helvetica,Arial,sans-serif" font-size="12.00" fill="#b9c7da">(Rebuildable, Ignored)</text>
</g>
<!-- CreateWindows&#45;&gt;DataInterim -->
<g id="edge6" class="edge">
<title>CreateWindows&#45;&gt;DataInterim</title>
<path fill="none" stroke="#4a6584" stroke-width="1.5" stroke-dasharray="5,2" d="M201.45,-423.85C213.71,-423.85 225.97,-423.85 238.23,-423.85"/>
<polygon fill="#4a6584" stroke="#4a6584" stroke-width="1.5" points="248.16,-423.85 238.16,-428.35 244.99,-424.1 238.16,-424.1 238.16,-423.85 238.16,-423.6 244.99,-423.6 238.16,-419.35 248.16,-423.85"/>
</g>
<!-- MapSplit -->
<g id="node8" class="node">
<title>MapSplit</title>
<path fill="#0a1b33" stroke="#00d4e8" stroke-width="2" d="M175.5,-350.3C175.5,-350.3 27,-350.3 27,-350.3 21,-350.3 15,-344.3 15,-338.3 15,-338.3 15,-315.2 15,-315.2 15,-309.2 21,-303.2 27,-303.2 27,-303.2 175.5,-303.2 175.5,-303.2 181.5,-303.2 187.5,-309.2 187.5,-315.2 187.5,-315.2 187.5,-338.3 187.5,-338.3 187.5,-344.3 181.5,-350.3 175.5,-350.3"/>
<text xml:space="preserve" text-anchor="middle" x="101.25" y="-328.1" font-family="Helvetica,Arial,sans-serif" font-size="12.00" fill="#ffffff">Map Records to Subjects,</text>
<text xml:space="preserve" text-anchor="middle" x="101.25" y="-315.35" font-family="Helvetica,Arial,sans-serif" font-size="12.00" fill="#ffffff">Then Split</text>
</g>
<!-- CreateWindows&#45;&gt;MapSplit -->
<g id="edge7" class="edge">
<title>CreateWindows&#45;&gt;MapSplit</title>
<path fill="none" stroke="#00d4e8" stroke-width="1.5" d="M101.25,-404.96C101.25,-393.14 101.25,-377.25 101.25,-362.96"/>
<polygon fill="#00d4e8" stroke="#00d4e8" stroke-width="1.5" points="104.75,-363.23 101.25,-353.23 97.75,-363.23 104.75,-363.23"/>
</g>
<!-- DataProcessed -->
<g id="node9" class="node">
<title>DataProcessed</title>
<path fill="#0a1b33" stroke="#4a6584" stroke-width="2" stroke-dasharray="5,2" d="M544.88,-350.3C544.88,-350.3 407.62,-350.3 407.62,-350.3 401.62,-350.3 395.62,-344.3 395.62,-338.3 395.62,-338.3 395.62,-315.2 395.62,-315.2 395.62,-309.2 401.62,-303.2 407.62,-303.2 407.62,-303.2 544.88,-303.2 544.88,-303.2 550.88,-303.2 556.88,-309.2 556.88,-315.2 556.88,-315.2 556.88,-338.3 556.88,-338.3 556.88,-344.3 550.88,-350.3 544.88,-350.3"/>
<text xml:space="preserve" text-anchor="middle" x="476.25" y="-328.1" font-family="Helvetica,Arial,sans-serif" font-size="12.00" fill="#b9c7da">data/processed/</text>
<text xml:space="preserve" text-anchor="middle" x="476.25" y="-315.35" font-family="Helvetica,Arial,sans-serif" font-size="12.00" fill="#b9c7da">(Model&#45;Ready, Ignored)</text>
</g>
<!-- MapSplit&#45;&gt;DataProcessed -->
<g id="edge8" class="edge">
<title>MapSplit&#45;&gt;DataProcessed</title>
<path fill="none" stroke="#4a6584" stroke-width="1.5" stroke-dasharray="5,2" d="M156.33,-351.26C180.62,-360.79 209.83,-370.55 237.25,-375.3 284.55,-383.49 298,-383.77 345.25,-375.3 367.71,-371.27 391.36,-363.65 412.29,-355.61"/>
<polygon fill="#4a6584" stroke="#4a6584" stroke-width="1.5" points="421.58,-351.93 413.94,-359.8 418.73,-353.33 412.38,-355.84 412.29,-355.61 412.19,-355.38 418.54,-352.87 410.63,-351.43 421.58,-351.93"/>
</g>
<!-- SplitManifest -->
<g id="node10" class="node">
<title>SplitManifest</title>
<path fill="#0a1b33" stroke="#8fe3f0" stroke-width="2" stroke-dasharray="5,2" d="M333.25,-344.75C333.25,-344.75 249.25,-344.75 249.25,-344.75 243.25,-344.75 237.25,-338.75 237.25,-332.75 237.25,-332.75 237.25,-320.75 237.25,-320.75 237.25,-314.75 243.25,-308.75 249.25,-308.75 249.25,-308.75 333.25,-308.75 333.25,-308.75 339.25,-308.75 345.25,-314.75 345.25,-320.75 345.25,-320.75 345.25,-332.75 345.25,-332.75 345.25,-338.75 339.25,-344.75 333.25,-344.75"/>
<text xml:space="preserve" text-anchor="middle" x="291.25" y="-321.73" font-family="Helvetica,Arial,sans-serif" font-size="12.00" fill="#8fe3f0">Split Manifest</text>
</g>
<!-- MapSplit&#45;&gt;SplitManifest -->
<g id="edge9" class="edge">
<title>MapSplit&#45;&gt;SplitManifest</title>
<path fill="none" stroke="#4a6584" stroke-width="1.5" stroke-dasharray="5,2" d="M188.46,-326.75C200.63,-326.75 212.8,-326.75 224.97,-326.75"/>
<polygon fill="#4a6584" stroke="#4a6584" stroke-width="1.5" points="234.81,-326.75 224.81,-331.25 231.64,-327 224.81,-327 224.81,-326.75 224.81,-326.5 231.64,-326.5 224.81,-322.25 234.81,-326.75"/>
</g>
<!-- TrainEvaluate -->
<g id="node11" class="node">
<title>TrainEvaluate</title>
<path fill="#0a1b33" stroke="#00d4e8" stroke-width="2" d="M150.75,-247.65C150.75,-247.65 51.75,-247.65 51.75,-247.65 45.75,-247.65 39.75,-241.65 39.75,-235.65 39.75,-235.65 39.75,-223.65 39.75,-223.65 39.75,-217.65 45.75,-211.65 51.75,-211.65 51.75,-211.65 150.75,-211.65 150.75,-211.65 156.75,-211.65 162.75,-217.65 162.75,-223.65 162.75,-223.65 162.75,-235.65 162.75,-235.65 162.75,-241.65 156.75,-247.65 150.75,-247.65"/>
<text xml:space="preserve" text-anchor="middle" x="101.25" y="-224.62" font-family="Helvetica,Arial,sans-serif" font-size="12.00" fill="#ffffff">Train + Evaluate</text>
</g>
<!-- MapSplit&#45;&gt;TrainEvaluate -->
<g id="edge10" class="edge">
<title>MapSplit&#45;&gt;TrainEvaluate</title>
<path fill="none" stroke="#00d4e8" stroke-width="1.5" d="M101.25,-302.24C101.25,-289.65 101.25,-274.02 101.25,-260.57"/>
<polygon fill="#00d4e8" stroke="#00d4e8" stroke-width="1.5" points="104.75,-260.79 101.25,-250.79 97.75,-260.79 104.75,-260.79"/>
</g>
<!-- Artifacts -->
<g id="node12" class="node">
<title>Artifacts</title>
<path fill="#0a1b33" stroke="#4a6584" stroke-width="2" stroke-dasharray="5,2" d="M285.25,-253.2C285.25,-253.2 225.25,-253.2 225.25,-253.2 219.25,-253.2 213.25,-247.2 213.25,-241.2 213.25,-241.2 213.25,-218.1 213.25,-218.1 213.25,-212.1 219.25,-206.1 225.25,-206.1 225.25,-206.1 285.25,-206.1 285.25,-206.1 291.25,-206.1 297.25,-212.1 297.25,-218.1 297.25,-218.1 297.25,-241.2 297.25,-241.2 297.25,-247.2 291.25,-253.2 285.25,-253.2"/>
<text xml:space="preserve" text-anchor="middle" x="255.25" y="-231" font-family="Helvetica,Arial,sans-serif" font-size="12.00" fill="#b9c7da">artifacts/</text>
<text xml:space="preserve" text-anchor="middle" x="255.25" y="-218.25" font-family="Helvetica,Arial,sans-serif" font-size="12.00" fill="#b9c7da">(Ignored)</text>
</g>
<!-- TrainEvaluate&#45;&gt;Artifacts -->
<g id="edge11" class="edge">
<title>TrainEvaluate&#45;&gt;Artifacts</title>
<path fill="none" stroke="#4a6584" stroke-width="1.5" stroke-dasharray="5,2" d="M163.51,-229.65C176.04,-229.65 188.57,-229.65 201.1,-229.65"/>
<polygon fill="#4a6584" stroke="#4a6584" stroke-width="1.5" points="210.78,-229.65 200.78,-234.15 207.61,-229.9 200.78,-229.9 200.78,-229.65 200.78,-229.4 207.61,-229.4 200.78,-225.15 210.78,-229.65"/>
</g>
<!-- RunManifest -->
<g id="node13" class="node">
<title>RunManifest</title>
<path fill="#00506b" stroke="#00e5ff" stroke-width="2" d="M124.5,-150.55C124.5,-150.55 42,-150.55 42,-150.55 36,-150.55 30,-144.55 30,-138.55 30,-138.55 30,-126.55 30,-126.55 30,-120.55 36,-114.55 42,-114.55 42,-114.55 124.5,-114.55 124.5,-114.55 130.5,-114.55 136.5,-120.55 136.5,-126.55 136.5,-126.55 136.5,-138.55 136.5,-138.55 136.5,-144.55 130.5,-150.55 124.5,-150.55"/>
<text xml:space="preserve" text-anchor="middle" x="83.25" y="-127.53" font-family="Helvetica,Arial,sans-serif" font-size="12.00" fill="#ffffff">Run Manifest</text>
</g>
<!-- Artifacts&#45;&gt;RunManifest -->
<g id="edge12" class="edge">
<title>Artifacts&#45;&gt;RunManifest:n</title>
<path fill="none" stroke="#00d4e8" stroke-width="1.5" d="M212.29,-213.9C170.9,-199.16 111.58,-176.53 90.79,-160.99"/>
<polygon fill="#00d4e8" stroke="#00d4e8" stroke-width="1.5" points="93.64,-158.95 84.67,-153.32 88.18,-163.32 93.64,-158.95"/>
</g>
<!-- MachineMetrics -->
<g id="node14" class="node">
<title>MachineMetrics</title>
<path fill="#00506b" stroke="#00e5ff" stroke-width="2" d="M312.25,-156.1C312.25,-156.1 198.25,-156.1 198.25,-156.1 192.25,-156.1 186.25,-150.1 186.25,-144.1 186.25,-144.1 186.25,-121 186.25,-121 186.25,-115 192.25,-109 198.25,-109 198.25,-109 312.25,-109 312.25,-109 318.25,-109 324.25,-115 324.25,-121 324.25,-121 324.25,-144.1 324.25,-144.1 324.25,-150.1 318.25,-156.1 312.25,-156.1"/>
<text xml:space="preserve" text-anchor="middle" x="255.25" y="-133.9" font-family="Helvetica,Arial,sans-serif" font-size="12.00" fill="#ffffff">Machine&#45;Readable</text>
<text xml:space="preserve" text-anchor="middle" x="255.25" y="-121.15" font-family="Helvetica,Arial,sans-serif" font-size="12.00" fill="#ffffff">Metrics</text>
</g>
<!-- Artifacts&#45;&gt;MachineMetrics -->
<g id="edge13" class="edge">
<title>Artifacts&#45;&gt;MachineMetrics</title>
<path fill="none" stroke="#00d4e8" stroke-width="1.5" d="M255.25,-205.14C255.25,-194.2 255.25,-180.96 255.25,-168.85"/>
<polygon fill="#00d4e8" stroke="#00d4e8" stroke-width="1.5" points="258.75,-169.06 255.25,-159.06 251.75,-169.06 258.75,-169.06"/>
</g>
<!-- GeneratedFigures -->
<g id="node15" class="node">
<title>GeneratedFigures</title>
<path fill="#00506b" stroke="#00e5ff" stroke-width="2" d="M498.12,-150.55C498.12,-150.55 386.38,-150.55 386.38,-150.55 380.38,-150.55 374.38,-144.55 374.38,-138.55 374.38,-138.55 374.38,-126.55 374.38,-126.55 374.38,-120.55 380.38,-114.55 386.38,-114.55 386.38,-114.55 498.12,-114.55 498.12,-114.55 504.12,-114.55 510.12,-120.55 510.12,-126.55 510.12,-126.55 510.12,-138.55 510.12,-138.55 510.12,-144.55 504.12,-150.55 498.12,-150.55"/>
<text xml:space="preserve" text-anchor="middle" x="442.25" y="-127.53" font-family="Helvetica,Arial,sans-serif" font-size="12.00" fill="#ffffff">Generated Figures</text>
</g>
<!-- Artifacts&#45;&gt;GeneratedFigures -->
<g id="edge14" class="edge">
<title>Artifacts&#45;&gt;GeneratedFigures:n</title>
<path fill="none" stroke="#00d4e8" stroke-width="1.5" d="M298.15,-228.89C349.59,-226.85 430.25,-215.28 441.04,-163.59"/>
<polygon fill="#00d4e8" stroke="#00d4e8" stroke-width="1.5" points="444.51,-164.11 442.02,-153.81 437.54,-163.41 444.51,-164.11"/>
</g>
<!-- Caption -->
<g id="node16" class="node">
<title>Caption</title>
<path fill="#0a1b33" stroke="none" stroke-width="2" d="M491.38,-59C491.38,-59 19.12,-59 19.12,-59 13.12,-59 7.12,-53 7.12,-47 7.12,-47 7.12,-12 7.12,-12 7.12,-6 13.12,0 19.12,0 19.12,0 491.38,0 491.38,0 497.38,0 503.38,-6 503.38,-12 503.38,-12 503.38,-47 503.38,-47 503.38,-53 497.38,-59 491.38,-59"/>
<polygon fill="#ffffff" stroke="none" points="7.12,0 7.12,-59 503.38,-59 503.38,0 7.12,0"/>
<text xml:space="preserve" text-anchor="start" x="20.12" y="-36.55" font-family="Helvetica,Arial,sans-serif" font-weight="bold" font-size="11.00" fill="#000000">Local Flow and Artifact Zones.</text>
<text xml:space="preserve" text-anchor="start" x="178.38" y="-36.55" font-family="Helvetica,Arial,sans-serif" font-size="11.00" fill="#000000"> Data is ingested from the MIT sourcefiles then verified, validated,</text>
<text xml:space="preserve" text-anchor="start" x="20.12" y="-25.55" font-family="Helvetica,Arial,sans-serif" font-size="11.00" fill="#000000">mapped, and split. The output of each step is cached in storage so nothing is lost or overwritten.</text>
<text xml:space="preserve" text-anchor="start" x="20.12" y="-14.55" font-family="Helvetica,Arial,sans-serif" font-size="11.00" fill="#000000">Clear provenance and record tracking from raw ingestion to trained, evaluated model.</text>
<polygon fill="none" stroke="#8a8f98" points="7.12,0 7.12,-59 503.38,-59 503.38,0 7.12,0"/>
</g>
<!-- RunManifest&#45;&gt;Caption -->
<!-- MachineMetrics&#45;&gt;Caption -->
<!-- GeneratedFigures&#45;&gt;Caption -->
<g id="legend-inset" transform="translate(405.88 -639.23) scale(1 1) rotate(0) translate(4 168.75)">
<title>legend</title>
<polygon fill="#000c1e" stroke="none" points="-4,4 -4,-168.75 147,-168.75 147,4 -4,4"/>
<!-- Legend -->
<g id="legend-node1" class="node">
<title>Legend</title>
<polygon fill="#0a1b33" stroke="none" points="0,0 0,-164.75 143,-164.75 143,0 0,0"/>
<text xml:space="preserve" text-anchor="start" x="52" y="-148.3" font-family="Helvetica,Arial,sans-serif" font-weight="bold" font-size="11.00" fill="#ffffff">Legend</text>
<polygon fill="#0a1b33" stroke="none" points="4,-124 4,-139.75 32.5,-139.75 32.5,-124 4,-124"/>
<text xml:space="preserve" text-anchor="start" x="38.5" y="-129.2" font-family="Helvetica,Arial,sans-serif" font-weight="bold" font-size="9.00" fill="#ffffff">Process Step</text>
<polygon fill="#4a6584" stroke="none" points="4,-105.25 4,-121 32.5,-121 32.5,-105.25 4,-105.25"/>
<text xml:space="preserve" text-anchor="start" x="38.5" y="-110.45" font-family="Helvetica,Arial,sans-serif" font-size="9.00" fill="#b9c7da">Storage Zone </text>
<text xml:space="preserve" text-anchor="start" x="96.25" y="-110.45" font-family="Helvetica,Arial,sans-serif" font-style="italic" font-size="9.00" fill="#b9c7da">(Dashed)</text>
<polygon fill="#8fe3f0" stroke="none" points="4,-86.5 4,-102.25 32.5,-102.25 32.5,-86.5 4,-86.5"/>
<text xml:space="preserve" text-anchor="start" x="38.5" y="-91.7" font-family="Helvetica,Arial,sans-serif" font-size="9.00" fill="#8fe3f0">Evidence Doc </text>
<text xml:space="preserve" text-anchor="start" x="97.75" y="-91.7" font-family="Helvetica,Arial,sans-serif" font-style="italic" font-size="9.00" fill="#8fe3f0">(Dashed)</text>
<polygon fill="#00506b" stroke="none" points="4,-67.75 4,-83.5 32.5,-83.5 32.5,-67.75 4,-67.75"/>
<text xml:space="preserve" text-anchor="start" x="38.5" y="-73" font-family="Helvetica,Arial,sans-serif" font-size="9.00" fill="#8fe3f0">Terminal Output</text>
<polygon fill="#122238" stroke="none" points="4,-49 4,-64.75 32.5,-64.75 32.5,-49 4,-49"/>
<text xml:space="preserve" text-anchor="start" x="38.5" y="-54.25" font-family="Helvetica,Arial,sans-serif" font-size="9.00" fill="#b9c7da">External Source</text>
<text xml:space="preserve" text-anchor="start" x="7" y="-32.5" font-family="Helvetica,Arial,sans-serif" font-size="11.00" fill="#00d4e8">—→</text>
<text xml:space="preserve" text-anchor="start" x="38.5" y="-33.62" font-family="Helvetica,Arial,sans-serif" font-size="9.00" fill="#b9c7da">Sequential Flow</text>
<text xml:space="preserve" text-anchor="start" x="7.38" y="-10" font-family="Helvetica,Arial,sans-serif" font-size="11.00" fill="#4a6584">&#45; &#45;→</text>
<text xml:space="preserve" text-anchor="start" x="38.5" y="-11.12" font-family="Helvetica,Arial,sans-serif" font-size="9.00" fill="#b9c7da">Writes To</text>
<polygon fill="none" stroke="#4a6584" points="0,0 0,-164.75 143,-164.75 143,0 0,0"/>
</g>
</g>
</g>
</svg>
