<?xml version="1.0" encoding="UTF-8" standalone="no"?>
<!DOCTYPE svg PUBLIC "-//W3C//DTD SVG 1.1//EN"
 "http://www.w3.org/Graphics/SVG/1.1/DTD/svg11.dtd">
<!-- Generated by graphviz version 15.1.0 (20260618.0150)
 -->
<!-- Title: modern_pipeline_lineage Pages: 1 -->
<svg width="1261.0pt" height="747.0pt"
 viewBox="3.00 -4.00 1217.00 711.00" xmlns="http://www.w3.org/2000/svg" xmlns:xlink="http://www.w3.org/1999/xlink">
<g id="graph0" class="graph" transform="scale(1 1) rotate(0) translate(47.2 627.3)">
<title>modern_pipeline_lineage</title>
<polygon fill="#000c1e" stroke="none" points="-44.0,44.0 -44.0,-631.3 1130.25,-631.3 1130.25,44.0 -44.0,44.0"/><polygon fill="#000c1e" stroke="none" points="-4,4 -4,-591.3 1090.25,-591.3 1090.25,4 -4,4"/>
<text xml:space="preserve" text-anchor="start" x="359.38" y="-567.2" font-family="Helvetica,Arial,sans-serif" font-weight="bold" font-size="18.00" fill="#ffffff">MODERN PIPELINE &amp; EVIDENCE LINEAGE</text>
<text xml:space="preserve" text-anchor="start" x="328.25" y="-535.95" font-family="Helvetica,Arial,sans-serif" font-size="13.00" fill="#00d4e8">Supported local research workflow with protected evaluation boundaries</text>
<!-- Control -->
<g id="node1" class="node">
<title>Control</title>
<path fill="#122238" stroke="#4a6584" stroke-width="2" d="M410.25,-494.3C410.25,-494.3 12,-494.3 12,-494.3 6,-494.3 0,-488.3 0,-482.3 0,-482.3 0,-470.3 0,-470.3 0,-464.3 6,-458.3 12,-458.3 12,-458.3 410.25,-458.3 410.25,-458.3 416.25,-458.3 422.25,-464.3 422.25,-470.3 422.25,-470.3 422.25,-482.3 422.25,-482.3 422.25,-488.3 416.25,-494.3 410.25,-494.3"/>
<text xml:space="preserve" text-anchor="middle" x="211.12" y="-471.28" font-family="Helvetica,Arial,sans-serif" font-size="12.00" fill="#b9c7da">Versioned Configuration + Tested Package Contracts + CLI Orchestration</text>
</g>
<!-- AcquireInventory -->
<g id="node2" class="node">
<title>AcquireInventory</title>
<path fill="#0a1b33" stroke="#00d4e8" stroke-width="2" d="M268.5,-399.75C268.5,-399.75 153.75,-399.75 153.75,-399.75 147.75,-399.75 141.75,-393.75 141.75,-387.75 141.75,-387.75 141.75,-375.75 141.75,-375.75 141.75,-369.75 147.75,-363.75 153.75,-363.75 153.75,-363.75 268.5,-363.75 268.5,-363.75 274.5,-363.75 280.5,-369.75 280.5,-375.75 280.5,-375.75 280.5,-387.75 280.5,-387.75 280.5,-393.75 274.5,-399.75 268.5,-399.75"/>
<text xml:space="preserve" text-anchor="middle" x="211.12" y="-376.73" font-family="Helvetica,Arial,sans-serif" font-size="12.00" fill="#ffffff">Acquire + Inventory</text>
</g>
<!-- Control&#45;&gt;AcquireInventory -->
<g id="edge1" class="edge">
<title>Control&#45;&gt;AcquireInventory</title>
<path fill="none" stroke="#00d4e8" stroke-width="1.5" d="M211.12,-457.46C211.12,-444.78 211.12,-427.46 211.12,-412.68"/>
<polygon fill="#00d4e8" stroke="#00d4e8" stroke-width="1.5" points="214.63,-412.81 211.13,-402.81 207.63,-412.81 214.63,-412.81"/>
</g>
<!-- ValidateMap -->
<g id="node3" class="node">
<title>ValidateMap</title>
<path fill="#0a1b33" stroke="#00d4e8" stroke-width="2" d="M472.5,-405.3C472.5,-405.3 381.75,-405.3 381.75,-405.3 375.75,-405.3 369.75,-399.3 369.75,-393.3 369.75,-393.3 369.75,-370.2 369.75,-370.2 369.75,-364.2 375.75,-358.2 381.75,-358.2 381.75,-358.2 472.5,-358.2 472.5,-358.2 478.5,-358.2 484.5,-364.2 484.5,-370.2 484.5,-370.2 484.5,-393.3 484.5,-393.3 484.5,-399.3 478.5,-405.3 472.5,-405.3"/>
<text xml:space="preserve" text-anchor="middle" x="427.12" y="-383.1" font-family="Helvetica,Arial,sans-serif" font-size="12.00" fill="#ffffff">Validate + Map</text>
<text xml:space="preserve" text-anchor="middle" x="427.12" y="-370.35" font-family="Helvetica,Arial,sans-serif" font-size="12.00" fill="#ffffff">Annotations</text>
</g>
<!-- AcquireInventory&#45;&gt;ValidateMap -->
<g id="edge2" class="edge">
<title>AcquireInventory&#45;&gt;ValidateMap</title>
<path fill="none" stroke="#00d4e8" stroke-width="1.5" d="M281.16,-381.75C306.42,-381.75 331.69,-381.75 356.96,-381.75"/>
<polygon fill="#00d4e8" stroke="#00d4e8" stroke-width="1.5" points="356.7,-385.25 366.7,-381.75 356.7,-378.25 356.7,-385.25"/>
</g>
<!-- Evidence -->
<g id="node9" class="node">
<title>Evidence</title>
<path fill="#0a1b33" stroke="#8fe3f0" stroke-width="2" stroke-dasharray="5,2" d="M507.88,-182.85C507.88,-182.85 116.37,-182.85 116.37,-182.85 110.38,-182.85 104.38,-176.85 104.38,-170.85 104.38,-170.85 104.38,-135 104.38,-135 104.38,-129 110.38,-123 116.38,-123 116.38,-123 507.88,-123 507.88,-123 513.88,-123 519.88,-129 519.88,-135 519.88,-135 519.88,-170.85 519.88,-170.85 519.88,-176.85 513.88,-182.85 507.88,-182.85"/>
<text xml:space="preserve" text-anchor="middle" x="312.12" y="-160.65" font-family="Helvetica,Arial,sans-serif" font-size="12.00" fill="#8fe3f0">Generated Operational + Reproducibility Evidence</text>
<text xml:space="preserve" text-anchor="middle" x="312.12" y="-147.9" font-family="Helvetica,Arial,sans-serif" font-size="12.00" fill="#8fe3f0">provenance · validation reports · split diagnostics · digests</text>
<text xml:space="preserve" text-anchor="middle" x="312.12" y="-135.15" font-family="Helvetica,Arial,sans-serif" font-size="12.00" fill="#8fe3f0">environment · runtime · resources · training metadata · validation metrics</text>
</g>
<!-- AcquireInventory&#45;&gt;Evidence -->
<g id="edge8" class="edge">
<title>AcquireInventory&#45;&gt;Evidence</title>
<path fill="none" stroke="#4a6584" stroke-width="1.5" stroke-dasharray="5,2" d="M219.05,-362.95C235.13,-326.83 271.96,-244.14 294.16,-194.27"/>
<polygon fill="#4a6584" stroke="#4a6584" stroke-width="1.5" points="298.19,-185.22 298.23,-196.18 297.13,-188.22 294.35,-194.46 294.12,-194.35 293.89,-194.25 296.67,-188.02 290.01,-192.52 298.19,-185.22"/>
</g>
<!-- ExtractWindows -->
<g id="node4" class="node">
<title>ExtractWindows</title>
<path fill="#0a1b33" stroke="#00d4e8" stroke-width="2" d="M681.75,-405.3C681.75,-405.3 586.5,-405.3 586.5,-405.3 580.5,-405.3 574.5,-399.3 574.5,-393.3 574.5,-393.3 574.5,-370.2 574.5,-370.2 574.5,-364.2 580.5,-358.2 586.5,-358.2 586.5,-358.2 681.75,-358.2 681.75,-358.2 687.75,-358.2 693.75,-364.2 693.75,-370.2 693.75,-370.2 693.75,-393.3 693.75,-393.3 693.75,-399.3 687.75,-405.3 681.75,-405.3"/>
<text xml:space="preserve" text-anchor="middle" x="634.12" y="-383.1" font-family="Helvetica,Arial,sans-serif" font-size="12.00" fill="#ffffff">Extract Labeled</text>
<text xml:space="preserve" text-anchor="middle" x="634.12" y="-370.35" font-family="Helvetica,Arial,sans-serif" font-size="12.00" fill="#ffffff">Windows</text>
</g>
<!-- ValidateMap&#45;&gt;ExtractWindows -->
<g id="edge3" class="edge">
<title>ValidateMap&#45;&gt;ExtractWindows</title>
<path fill="none" stroke="#00d4e8" stroke-width="1.5" d="M485.34,-381.75C510.76,-381.75 536.18,-381.75 561.61,-381.75"/>
<polygon fill="#00d4e8" stroke="#00d4e8" stroke-width="1.5" points="561.41,-385.25 571.41,-381.75 561.41,-378.25 561.41,-385.25"/>
</g>
<!-- SplitIndex -->
<g id="node5" class="node">
<title>SplitIndex</title>
<path fill="#0a1b33" stroke="#00d4e8" stroke-width="2" d="M671.62,-305.2C671.62,-305.2 554.62,-305.2 554.62,-305.2 548.62,-305.2 542.62,-299.2 542.62,-293.2 542.62,-293.2 542.62,-270.1 542.62,-270.1 542.62,-264.1 548.62,-258.1 554.62,-258.1 554.62,-258.1 671.62,-258.1 671.62,-258.1 677.62,-258.1 683.62,-264.1 683.62,-270.1 683.62,-270.1 683.62,-293.2 683.62,-293.2 683.62,-299.2 677.62,-305.2 671.62,-305.2"/>
<text xml:space="preserve" text-anchor="middle" x="613.12" y="-283" font-family="Helvetica,Arial,sans-serif" font-size="12.00" fill="#ffffff">Subject&#45;Aware Split</text>
<text xml:space="preserve" text-anchor="middle" x="613.12" y="-270.25" font-family="Helvetica,Arial,sans-serif" font-size="12.00" fill="#ffffff">+ Dataset Index</text>
</g>
<!-- ExtractWindows&#45;&gt;SplitIndex -->
<g id="edge4" class="edge">
<title>ExtractWindows&#45;&gt;SplitIndex</title>
<path fill="none" stroke="#00d4e8" stroke-width="1.5" d="M629.15,-357.5C626.6,-345.62 623.45,-330.9 620.62,-317.68"/>
<polygon fill="#00d4e8" stroke="#00d4e8" stroke-width="1.5" points="624.13,-317.34 618.61,-308.29 617.28,-318.8 624.13,-317.34"/>
</g>
<!-- Training -->
<g id="node6" class="node">
<title>Training</title>
<path fill="#0a1b33" stroke="#00d4e8" stroke-width="2" d="M868.75,-305.2C868.75,-305.2 785.5,-305.2 785.5,-305.2 779.5,-305.2 773.5,-299.2 773.5,-293.2 773.5,-293.2 773.5,-270.1 773.5,-270.1 773.5,-264.1 779.5,-258.1 785.5,-258.1 785.5,-258.1 868.75,-258.1 868.75,-258.1 874.75,-258.1 880.75,-264.1 880.75,-270.1 880.75,-270.1 880.75,-293.2 880.75,-293.2 880.75,-299.2 874.75,-305.2 868.75,-305.2"/>
<text xml:space="preserve" text-anchor="middle" x="827.12" y="-283" font-family="Helvetica,Arial,sans-serif" font-size="12.00" fill="#ffffff">Train on</text>
<text xml:space="preserve" text-anchor="middle" x="827.12" y="-270.25" font-family="Helvetica,Arial,sans-serif" font-size="12.00" fill="#ffffff">Training Only</text>
</g>
<!-- SplitIndex&#45;&gt;Training -->
<g id="edge5" class="edge">
<title>SplitIndex&#45;&gt;Training</title>
<path fill="none" stroke="#00d4e8" stroke-width="1.5" d="M684.6,-281.65C709.91,-281.65 735.22,-281.65 760.54,-281.65"/>
<polygon fill="#00d4e8" stroke="#00d4e8" stroke-width="1.5" points="760.29,-285.15 770.29,-281.65 760.29,-278.15 760.29,-285.15"/>
</g>
<!-- ProtectedTest -->
<g id="node8" class="node">
<title>ProtectedTest</title>
<path fill="#2a1f0a" stroke="#f5a623" stroke-width="2" d="M1010.62,-176.48C1010.62,-176.48 827.62,-176.48 827.62,-176.48 821.62,-176.48 815.62,-170.48 815.62,-164.48 815.62,-164.48 815.62,-141.38 815.62,-141.38 815.62,-135.38 821.62,-129.38 827.62,-129.38 827.62,-129.38 1010.62,-129.38 1010.62,-129.38 1016.62,-129.38 1022.62,-135.38 1022.62,-141.38 1022.62,-141.38 1022.62,-164.48 1022.62,-164.48 1022.62,-170.48 1016.62,-176.48 1010.62,-176.48"/>
<text xml:space="preserve" text-anchor="middle" x="919.12" y="-154.28" font-family="Helvetica,Arial,sans-serif" font-size="12.00" fill="#ffd28a">Protected Test Partition</text>
<text xml:space="preserve" text-anchor="middle" x="919.12" y="-141.53" font-family="Helvetica,Arial,sans-serif" font-size="12.00" fill="#ffd28a">Indexed, Unopened, Unreported</text>
</g>
<!-- SplitIndex&#45;&gt;ProtectedTest -->
<g id="edge7" class="edge">
<title>SplitIndex&#45;&gt;ProtectedTest</title>
<path fill="none" stroke="#f5a623" stroke-width="1.5" stroke-dasharray="5,2" d="M669.96,-257.11C721.41,-235.81 797.25,-204.4 851.73,-181.83"/>
<polygon fill="#f5a623" stroke="#f5a623" stroke-width="1.5" points="860.64,-178.14 853.13,-186.13 857.81,-179.59 851.5,-182.2 851.4,-181.97 851.31,-181.74 857.62,-179.13 849.68,-177.81 860.64,-178.14"/>
<polygon fill="#000c1e" stroke="none" points="784.45,-208.85 784.45,-232.1 852.7,-232.1 852.7,-208.85 784.45,-208.85"/>
<text xml:space="preserve" text-anchor="start" x="790.45" y="-217.1" font-family="Times,serif" font-size="10.00" fill="#ffd28a">Indexed Only</text>
</g>
<!-- SplitIndex&#45;&gt;Evidence -->
<g id="edge9" class="edge">
<title>SplitIndex&#45;&gt;Evidence</title>
<path fill="none" stroke="#4a6584" stroke-width="1.5" stroke-dasharray="5,2" d="M557.21,-257.11C511.34,-237.8 445.76,-210.19 393.97,-188.38"/>
<polygon fill="#4a6584" stroke="#4a6584" stroke-width="1.5" points="384.83,-184.53 395.79,-184.27 387.85,-185.53 394.14,-188.18 394.04,-188.41 393.95,-188.64 387.65,-186 392.3,-192.56 384.83,-184.53"/>
</g>
<!-- ValidationEval -->
<g id="node7" class="node">
<title>ValidationEval</title>
<path fill="#0a1b33" stroke="#00d4e8" stroke-width="2" d="M1074.25,-305.2C1074.25,-305.2 982,-305.2 982,-305.2 976,-305.2 970,-299.2 970,-293.2 970,-293.2 970,-270.1 970,-270.1 970,-264.1 976,-258.1 982,-258.1 982,-258.1 1074.25,-258.1 1074.25,-258.1 1080.25,-258.1 1086.25,-264.1 1086.25,-270.1 1086.25,-270.1 1086.25,-293.2 1086.25,-293.2 1086.25,-299.2 1080.25,-305.2 1074.25,-305.2"/>
<text xml:space="preserve" text-anchor="middle" x="1028.12" y="-283" font-family="Helvetica,Arial,sans-serif" font-size="12.00" fill="#ffffff">Evaluate on</text>
<text xml:space="preserve" text-anchor="middle" x="1028.12" y="-270.25" font-family="Helvetica,Arial,sans-serif" font-size="12.00" fill="#ffffff">Validation Only</text>
</g>
<!-- Training&#45;&gt;ValidationEval -->
<g id="edge6" class="edge">
<title>Training&#45;&gt;ValidationEval</title>
<path fill="none" stroke="#00d4e8" stroke-width="1.5" d="M881.69,-281.65C906.88,-281.65 932.06,-281.65 957.24,-281.65"/>
<polygon fill="#00d4e8" stroke="#00d4e8" stroke-width="1.5" points="956.94,-285.15 966.94,-281.65 956.94,-278.15 956.94,-285.15"/>
</g>
<!-- ValidationEval&#45;&gt;Evidence -->
<g id="edge10" class="edge">
<title>ValidationEval&#45;&gt;Evidence</title>
<path fill="none" stroke="#4a6584" stroke-width="1.5" stroke-dasharray="5,2" d="M984.94,-257.19C952.64,-240.79 906.85,-219.9 864.12,-208.85 744.41,-177.88 710.17,-195.1 587.12,-182.85 569.32,-181.08 550.88,-179.21 532.35,-177.31"/>
<polygon fill="#4a6584" stroke="#4a6584" stroke-width="1.5" points="522.63,-176.31 533.04,-172.86 525.81,-176.39 532.6,-177.08 532.58,-177.33 532.55,-177.58 525.76,-176.88 532.12,-181.81 522.63,-176.31"/>
</g>
<!-- RunManifest -->
<g id="node10" class="node">
<title>RunManifest</title>
<path fill="#00506b" stroke="#00e5ff" stroke-width="2" d="M758.38,-176.48C758.38,-176.48 621.88,-176.48 621.88,-176.48 615.88,-176.48 609.88,-170.48 609.88,-164.48 609.88,-164.48 609.88,-141.38 609.88,-141.38 609.88,-135.38 615.88,-129.38 621.88,-129.38 621.88,-129.38 758.38,-129.38 758.38,-129.38 764.38,-129.38 770.38,-135.38 770.38,-141.38 770.38,-141.38 770.38,-164.48 770.38,-164.48 770.38,-170.48 764.38,-176.48 758.38,-176.48"/>
<text xml:space="preserve" text-anchor="middle" x="690.12" y="-154.28" font-family="Helvetica,Arial,sans-serif" font-size="12.00" fill="#ffffff">Auditable Run Manifest</text>
<text xml:space="preserve" text-anchor="middle" x="690.12" y="-141.53" font-family="Helvetica,Arial,sans-serif" font-size="12.00" fill="#ffffff">+ Artifact Lineage</text>
</g>
<!-- Evidence&#45;&gt;RunManifest -->
<g id="edge11" class="edge">
<title>Evidence&#45;&gt;RunManifest</title>
<path fill="none" stroke="#00d4e8" stroke-width="1.5" d="M520.69,-152.93C546.12,-152.93 571.54,-152.93 596.97,-152.93"/>
<polygon fill="#00d4e8" stroke="#00d4e8" stroke-width="1.5" points="596.78,-156.43 606.78,-152.93 596.78,-149.43 596.78,-156.43"/>
</g>
<!-- Caption -->
<g id="node11" class="node">
<title>Caption</title>
<path fill="#0a1b33" stroke="none" stroke-width="2" d="M759.5,-70C759.5,-70 240.75,-70 240.75,-70 234.75,-70 228.75,-64 228.75,-58 228.75,-58 228.75,-12 228.75,-12 228.75,-6 234.75,0 240.75,0 240.75,0 759.5,0 759.5,0 765.5,0 771.5,-6 771.5,-12 771.5,-12 771.5,-58 771.5,-58 771.5,-64 765.5,-70 759.5,-70"/>
<polygon fill="#ffffff" stroke="none" points="228.75,0 228.75,-70 771.5,-70 771.5,0 228.75,0"/>
<text xml:space="preserve" text-anchor="start" x="241.75" y="-47.55" font-family="Helvetica,Arial,sans-serif" font-weight="bold" font-size="11.00" fill="#000000">Modern Pipeline and Evidence Lineage.</text>
<text xml:space="preserve" text-anchor="start" x="447.25" y="-47.55" font-family="Helvetica,Arial,sans-serif" font-size="11.00" fill="#000000"> Versioned controls drive a local, subject&#45;aware workflow from</text>
<text xml:space="preserve" text-anchor="start" x="241.75" y="-36.55" font-family="Helvetica,Arial,sans-serif" font-size="11.00" fill="#000000">acquisition through training and validation&#45;only evaluation. Evidence from each stage is linked in an auditable</text>
<text xml:space="preserve" text-anchor="start" x="241.75" y="-25.55" font-family="Helvetica,Arial,sans-serif" font-size="11.00" fill="#000000">run manifest; the protected test partition stays unopened. This is educational pipeline evidence, not clinical</text>
<text xml:space="preserve" text-anchor="start" x="241.75" y="-14.55" font-family="Helvetica,Arial,sans-serif" font-size="11.00" fill="#000000">or benchmark evidence.</text>
<polygon fill="none" stroke="#8a8f98" points="228.75,0 228.75,-70 771.5,-70 771.5,0 228.75,0"/>
</g>
<!-- Evidence&#45;&gt;Caption -->
<!-- RunManifest&#45;&gt;Caption -->
<g id="modern-pipeline-lineage-legend-inset" transform="translate(951.75 -509.30) scale(1 1) rotate(0) translate(4 168.75)">
<title>legend</title>
<polygon fill="#000c1e" stroke="none" points="-4,4 -4,-168.75 130.5,-168.75 130.5,4 -4,4"/>
<!-- Legend -->
<g id="modern-pipeline-lineage-legend-node1" class="node">
<title>Legend</title>
<polygon fill="#0a1b33" stroke="none" points="0,0 0,-164.75 126.5,-164.75 126.5,0 0,0"/>
<text xml:space="preserve" text-anchor="start" x="43.75" y="-148.3" font-family="Helvetica,Arial,sans-serif" font-weight="bold" font-size="11.00" fill="#ffffff">Legend</text>
<polygon fill="#0a1b33" stroke="none" points="4,-124 4,-139.75 32.5,-139.75 32.5,-124 4,-124"/>
<polygon fill="none" stroke="#00d4e8" points="4,-124 4,-139.75 32.5,-139.75 32.5,-124 4,-124"/>
<text xml:space="preserve" text-anchor="start" x="38.5" y="-129.2" font-family="Helvetica,Arial,sans-serif" font-weight="bold" font-size="9.00" fill="#ffffff">Pipeline Stage</text>
<polygon fill="#122238" stroke="none" points="4,-105.25 4,-121 32.5,-121 32.5,-105.25 4,-105.25"/>
<polygon fill="none" stroke="#4a6584" points="4,-105.25 4,-121 32.5,-121 32.5,-105.25 4,-105.25"/>
<text xml:space="preserve" text-anchor="start" x="38.5" y="-110.5" font-family="Helvetica,Arial,sans-serif" font-size="9.00" fill="#b9c7da">Control Plane</text>
<polygon fill="#0a1b33" stroke="none" points="4,-86.5 4,-102.25 32.5,-102.25 32.5,-86.5 4,-86.5"/>
<polygon fill="none" stroke="#8fe3f0" points="4,-86.5 4,-102.25 32.5,-102.25 32.5,-86.5 4,-86.5"/>
<text xml:space="preserve" text-anchor="start" x="38.5" y="-91.75" font-family="Helvetica,Arial,sans-serif" font-size="9.00" fill="#8fe3f0">Evidence + Artifacts</text>
<polygon fill="#2a1f0a" stroke="none" points="4,-67.75 4,-83.5 32.5,-83.5 32.5,-67.75 4,-67.75"/>
<polygon fill="none" stroke="#f5a623" points="4,-67.75 4,-83.5 32.5,-83.5 32.5,-67.75 4,-67.75"/>
<text xml:space="preserve" text-anchor="start" x="38.5" y="-73" font-family="Helvetica,Arial,sans-serif" font-size="9.00" fill="#ffd28a">Protected Boundary</text>
<polygon fill="#00506b" stroke="none" points="4,-49 4,-64.75 32.5,-64.75 32.5,-49 4,-49"/>
<polygon fill="none" stroke="#00e5ff" points="4,-49 4,-64.75 32.5,-64.75 32.5,-49 4,-49"/>
<text xml:space="preserve" text-anchor="start" x="38.5" y="-54.25" font-family="Helvetica,Arial,sans-serif" font-size="9.00" fill="#8fe3f0">Terminal Lineage</text>
<text xml:space="preserve" text-anchor="start" x="7" y="-32.5" font-family="Helvetica,Arial,sans-serif" font-size="11.00" fill="#00d4e8">—→</text>
<text xml:space="preserve" text-anchor="start" x="38.5" y="-33.62" font-family="Helvetica,Arial,sans-serif" font-size="9.00" fill="#b9c7da">Sequential Flow</text>
<text xml:space="preserve" text-anchor="start" x="7.38" y="-10" font-family="Helvetica,Arial,sans-serif" font-size="11.00" fill="#4a6584">&#45; &#45;→</text>
<text xml:space="preserve" text-anchor="start" x="38.5" y="-11.12" font-family="Helvetica,Arial,sans-serif" font-size="9.00" fill="#b9c7da">Records Evidence</text>
<polygon fill="none" stroke="#4a6584" points="0,0 0,-164.75 126.5,-164.75 126.5,0 0,0"/>
</g>
</g>
</g>
</svg>
